HIERARCHY
ROOT hips
{
	OFFSET -0.003675 0.299928 -0.021708
	CHANNELS 6 Xposition Yposition Zposition Xrotation Yrotation Zrotation
	JOINT LowerBack
	{
		OFFSET 0.000919 0.177588 0.009275
		CHANNELS 3 Xrotation Yrotation Zrotation
		JOINT spine
		{
			OFFSET 0.000919 0.177588 0.009275
			CHANNELS 3 Xrotation Yrotation Zrotation
			JOINT chest
			{
				OFFSET 0.000456 0.100015 0.004638
				CHANNELS 3 Xrotation Yrotation Zrotation
				JOINT neck
				{
					OFFSET 0.000456 0.100015 0.004638
					CHANNELS 3 Xrotation Yrotation Zrotation
					JOINT head
					{
						OFFSET 0.000924 0.155147 0.009274
						CHANNELS 6 Xposition Yposition Zposition Xrotation Yrotation Zrotation
						End Site
						{
							OFFSET 0.000000 0.153400 0.000000
						}
					}
				}
				JOINT shoulder.L
				{
					OFFSET 0.019937 0.078966 0.057518
					CHANNELS 6 Xposition Yposition Zposition Yrotation Xrotation Zrotation
					JOINT upper_arm.L
					{
						OFFSET 0.177024 -0.020465 -0.095062
						CHANNELS 6 Xposition Yposition Zposition Xrotation Yrotation Zrotation
						JOINT forearm.L
						{
							OFFSET 0.247100 -0.135500 -0.061800
							CHANNELS 3 Xrotation Yrotation Zrotation
							JOINT hand.L
							{
								OFFSET 0.217000 -0.143000 0.039300
								CHANNELS 3 Xrotation Yrotation Zrotation
								JOINT palm.01.L
								{
									OFFSET 0.021770 -0.038291 0.012954
									CHANNELS 6 Xposition Yposition Zposition Yrotation Xrotation Zrotation
									JOINT f_index.01.L
									{
										OFFSET 0.053215 -0.044137 0.008236
										CHANNELS 3 Xrotation Yrotation Zrotation
										JOINT f_index.02.L
										{
											OFFSET 0.036108 -0.024723 -0.010656
											CHANNELS 3 Xrotation Yrotation Zrotation
											JOINT f_index.03.L
											{
												OFFSET 0.021342 -0.014948 -0.010846
												CHANNELS 3 Xrotation Yrotation Zrotation
												End Site
												{
													OFFSET 0.015600 -0.009860 -0.013421
												}
											}
										}
									}
									JOINT thumb.01.L
									{
										OFFSET -0.009090 -0.002348 -0.024223
										CHANNELS 6 Xposition Yposition Zposition Xrotation Yrotation Zrotation
										JOINT thumb.02.L
										{
											OFFSET 0.019713 -0.035076 -0.011120
											CHANNELS 3 Xrotation Yrotation Zrotation
											JOINT thumb.03.L
											{
												OFFSET 0.024877 -0.021748 -0.005176
												CHANNELS 3 Xrotation Yrotation Zrotation
												End Site
												{
													OFFSET 0.016125 -0.013029 -0.001569
												}
											}
										}
									}
								}
								JOINT palm.02.L
								{
									OFFSET 0.032823 -0.025104 0.012281
									CHANNELS 6 Xposition Yposition Zposition Yrotation Xrotation Zrotation
									JOINT f_middle.01.L
									{
										OFFSET 0.055723 -0.038469 0.008037
										CHANNELS 3 Xrotation Yrotation Zrotation
										JOINT f_middle.02.L
										{
											OFFSET 0.038167 -0.027473 -0.015582
											CHANNELS 3 Xrotation Yrotation Zrotation
											JOINT f_middle.03.L
											{
												OFFSET 0.021707 -0.016587 -0.017037
												CHANNELS 3 Xrotation Yrotation Zrotation
												End Site
												{
													OFFSET 0.014112 -0.010584 -0.014294
												}
											}
										}
									}
								}
								JOINT palm.03.L
								{
									OFFSET 0.039230 -0.011402 0.008390
									CHANNELS 6 Xposition Yposition Zposition Yrotation Xrotation Zrotation
									JOINT f_ring.01.L
									{
										OFFSET 0.061796 -0.031470 0.007910
										CHANNELS 3 Xrotation Yrotation Zrotation
										JOINT f_ring.02.L
										{
											OFFSET 0.033092 -0.023401 -0.019127
											CHANNELS 3 Xrotation Yrotation Zrotation
											JOINT f_ring.03.L
											{
												OFFSET 0.021392 -0.015362 -0.017824
												CHANNELS 3 Xrotation Yrotation Zrotation
												End Site
												{
													OFFSET 0.008670 -0.007297 -0.014686
												}
											}
										}
									}
								}
								JOINT palm.04.L
								{
									OFFSET 0.043417 0.002450 0.002889
									CHANNELS 6 Xposition Yposition Zposition Yrotation Xrotation Zrotation
									JOINT f_pinky.01.L
									{
										OFFSET 0.069986 -0.026156 0.003627
										CHANNELS 3 Xrotation Yrotation Zrotation
										JOINT f_pinky.02.L
										{
											OFFSET 0.018520 -0.012813 -0.016429
											CHANNELS 3 Xrotation Yrotation Zrotation
											JOINT f_pinky.03.L
											{
												OFFSET 0.013822 -0.009796 -0.014947
												CHANNELS 3 Xrotation Yrotation Zrotation
												End Site
												{
													OFFSET 0.007238 -0.006103 -0.011657
												}
											}
										}
									}
								}
							}
						}
					}
				}
				JOINT shoulder.R
				{
					OFFSET -0.016662 0.078957 0.057696
					CHANNELS 6 Xposition Yposition Zposition Yrotation Xrotation Zrotation
					JOINT upper_arm.R
					{
						OFFSET -0.176972 -0.020537 -0.095144
						CHANNELS 6 Xposition Yposition Zposition Xrotation Yrotation Zrotation
						JOINT forearm.R
						{
							OFFSET -0.247100 -0.135500 -0.061800
							CHANNELS 3 Xrotation Yrotation Zrotation
							JOINT hand.R
							{
								OFFSET -0.217000 -0.143000 0.039300
								CHANNELS 3 Xrotation Yrotation Zrotation
								JOINT palm.01.R
								{
									OFFSET -0.021773 -0.038278 0.012988
									CHANNELS 6 Xposition Yposition Zposition Yrotation Xrotation Zrotation
									JOINT f_index.01.R
									{
										OFFSET -0.053212 -0.044139 0.008249
										CHANNELS 3 Xrotation Yrotation Zrotation
										JOINT f_index.02.R
										{
											OFFSET -0.036049 -0.024835 -0.010634
											CHANNELS 3 Xrotation Yrotation Zrotation
											JOINT f_index.03.R
											{
												OFFSET -0.021371 -0.014881 -0.010866
												CHANNELS 3 Xrotation Yrotation Zrotation
												End Site
												{
													OFFSET -0.015584 -0.009883 -0.013422
												}
											}
										}
									}
									JOINT thumb.01.R
									{
										OFFSET 0.009113 -0.002381 -0.024211
										CHANNELS 6 Xposition Yposition Zposition Xrotation Yrotation Zrotation
										JOINT thumb.02.R
										{
											OFFSET -0.019694 -0.035097 -0.011088
											CHANNELS 3 Xrotation Yrotation Zrotation
											JOINT thumb.03.R
											{
												OFFSET -0.024867 -0.021762 -0.005168
												CHANNELS 3 Xrotation Yrotation Zrotation
												End Site
												{
													OFFSET -0.016120 -0.013036 -0.001565
												}
											}
										}
									}
								}
								JOINT palm.02.R
								{
									OFFSET -0.032828 -0.025095 0.012286
									CHANNELS 6 Xposition Yposition Zposition Yrotation Xrotation Zrotation
									JOINT f_middle.01.R
									{
										OFFSET -0.055721 -0.038472 0.008040
										CHANNELS 3 Xrotation Yrotation Zrotation
										JOINT f_middle.02.R
										{
											OFFSET -0.038101 -0.027593 -0.015557
											CHANNELS 3 Xrotation Yrotation Zrotation
											JOINT f_middle.03.R
											{
												OFFSET -0.021730 -0.016530 -0.017054
												CHANNELS 3 Xrotation Yrotation Zrotation
												End Site
												{
													OFFSET -0.014096 -0.010608 -0.014293
												}
											}
										}
									}
								}
								JOINT palm.03.R
								{
									OFFSET -0.039192 -0.011488 0.008390
									CHANNELS 6 Xposition Yposition Zposition Yrotation Xrotation Zrotation
									JOINT f_ring.01.R
									{
										OFFSET -0.061839 -0.031387 0.007876
										CHANNELS 3 Xrotation Yrotation Zrotation
										JOINT f_ring.02.R
										{
											OFFSET -0.033068 -0.023437 -0.019125
											CHANNELS 3 Xrotation Yrotation Zrotation
											JOINT f_ring.03.R
											{
												OFFSET -0.021371 -0.015393 -0.017822
												CHANNELS 3 Xrotation Yrotation Zrotation
												End Site
												{
													OFFSET -0.008654 -0.007321 -0.014684
												}
											}
										}
									}
								}
								JOINT palm.04.R
								{
									OFFSET -0.043421 0.002443 0.002845
									CHANNELS 6 Xposition Yposition Zposition Yrotation Xrotation Zrotation
									JOINT f_pinky.01.R
									{
										OFFSET -0.069983 -0.026169 0.003599
										CHANNELS 3 Xrotation Yrotation Zrotation
										JOINT f_pinky.02.R
										{
											OFFSET -0.018501 -0.012842 -0.016428
											CHANNELS 3 Xrotation Yrotation Zrotation
											JOINT f_pinky.03.R
											{
												OFFSET -0.013806 -0.009821 -0.014946
												CHANNELS 3 Xrotation Yrotation Zrotation
												End Site
												{
													OFFSET -0.007226 -0.006121 -0.011655
												}
											}
										}
									}
								}
							}
						}
					}
				}
			}
		}
	}
	JOINT pelvis.L
	{
		OFFSET 0.000000 0.000000 0.000000
		CHANNELS 6 Xposition Yposition Zposition Xrotation Yrotation Zrotation
		JOINT thigh.L
		{
			OFFSET 0.101675 0.001054 -0.000000
			CHANNELS 3 Xrotation Yrotation Zrotation
			JOINT shin.L
			{
				OFFSET 0.000000 -0.534800 0.041000
				CHANNELS 3 Xrotation Yrotation Zrotation
				JOINT foot.L
				{
					OFFSET 0.000000 -0.452000 -0.044800
					CHANNELS 3 Xrotation Yrotation Zrotation
					JOINT toe.L
					{
						OFFSET -0.000000 -0.068500 0.109600
						CHANNELS 3 Xrotation Yrotation Zrotation
						End Site
						{
							OFFSET -0.000000 0.000000 0.067200
						}
					}
				}
				JOINT heel.L
				{
					OFFSET 0.000000 -0.452000 -0.044800
					CHANNELS 3 Xrotation Yrotation Zrotation
					JOINT heel.02.L
					{
						OFFSET -0.038000 -0.085200 0.016200
						CHANNELS 6 Xposition Yposition Zposition Xrotation Yrotation Zrotation
						End Site
						{
							OFFSET 0.080000 -0.000000 0.000000
						}
					}
				}
			}
		}
	}
	JOINT pelvis.R
	{
		OFFSET 0.000000 0.000000 0.000000
		CHANNELS 6 Xposition Yposition Zposition Xrotation Yrotation Zrotation
		JOINT thigh.R
		{
			OFFSET -0.094325 0.001054 0.000000
			CHANNELS 3 Xrotation Yrotation Zrotation
			JOINT shin.R
			{
				OFFSET 0.000000 -0.534800 0.041000
				CHANNELS 3 Xrotation Yrotation Zrotation
				JOINT foot.R
				{
					OFFSET 0.000000 -0.452000 -0.044800
					CHANNELS 3 Xrotation Yrotation Zrotation
					JOINT toe.R
					{
						OFFSET -0.000000 -0.068500 0.109600
						CHANNELS 3 Xrotation Yrotation Zrotation
						End Site
						{
							OFFSET -0.000000 0.000000 0.067200
						}
					}
				}
				JOINT heel.R
				{
					OFFSET 0.000000 -0.452000 -0.044800
					CHANNELS 3 Xrotation Yrotation Zrotation
					JOINT heel.02.R
					{
						OFFSET 0.038000 -0.085200 0.016200
						CHANNELS 6 Xposition Yposition Zposition Xrotation Yrotation Zrotation
						End Site
						{
							OFFSET -0.080000 0.000000 -0.000000
						}
					}
				}
			}
		}
	}
}
MOTION
Frames: 4
Frame Time: 0.041667
-0.017327 0.226055 -0.004476 -66.982975 14.605728 100.413541 -0.000001 -0.000000 -0.000001 0.000001 0.000000 -0.000001 -0.000002 -0.000003 0.000001 -0.000002 -0.000002 0.000001 0.000924 0.155147 0.009274 -14.914702 0.053383 -7.845520 0.019937 0.078966 0.057518 -41.183261 2.591914 32.247813 0.177024 -0.020465 -0.095062 -18.541001 17.372111 -67.927693 -12.819894 -10.761207 -19.519595 -0.000002 0.000000 -0.000002 0.021770 -0.038291 0.012954 -0.000001 -0.000001 -0.000002 -0.000000 -0.000000 -0.000000 -0.000003 0.000001 0.000003 0.000000 0.000005 -0.000002 -0.009090 -0.002348 -0.024223 0.000003 -0.000001 -0.000003 0.000005 0.000000 -0.000004 0.000002 0.000001 -0.000002 0.032823 -0.025104 0.012281 -0.000002 0.000002 0.000007 -0.000001 0.000003 -0.000002 0.000002 0.000000 0.000001 0.000001 0.000001 0.000003 0.039230 -0.011402 0.008390 0.000001 -0.000002 0.000006 0.000001 -0.000002 -0.000000 0.000001 0.000004 0.000005 0.000003 -0.000002 0.000003 0.043417 0.002450 0.002889 -0.000001 -0.000001 -0.000002 -0.000004 -0.000003 -0.000002 0.000000 0.000004 -0.000001 0.000003 0.000002 -0.000002 -0.016662 0.078957 0.057696 -27.116920 5.776697 -23.313896 -0.176972 -0.020537 -0.095144 -10.189480 -10.277927 58.039252 -9.165262 9.763714 13.800008 -0.000001 -0.000001 0.000002 -0.021773 -0.038278 0.012988 -0.000000 -0.000002 -0.000002 -0.000002 -0.000002 0.000000 0.000000 0.000001 -0.000004 0.000002 0.000003 -0.000000 0.009114 -0.002381 -0.024212 0.000001 -0.000000 -0.000001 0.000001 -0.000002 0.000000 0.000004 0.000001 0.000001 -0.032828 -0.025095 0.012286 -0.000000 -0.000000 -0.000001 0.000002 0.000003 -0.000003 -0.000003 0.000003 -0.000000 -0.000000 0.000002 -0.000003 -0.039192 -0.011488 0.008390 -0.000002 0.000001 0.000003 0.000000 0.000000 -0.000003 0.000003 -0.000001 0.000003 -0.000001 -0.000001 -0.000000 -0.043421 0.002443 0.002845 -0.000003 -0.000001 0.000004 -0.000002 0.000003 -0.000002 0.000000 -0.000005 0.000002 0.000002 0.000001 -0.000005 0.000000 0.000000 -0.000000 -1.956311 -1.274092 13.452595 -11.429307 0.624065 9.176531 23.942701 -2.721027 28.655260 0.000002 -0.000002 0.000000 0.000000 -0.000003 0.000001 -0.000005 -0.000001 0.000003 -0.038000 -0.085200 0.016200 -0.000001 -0.000001 -0.000003 0.000000 0.000000 -0.000000 -1.956121 -1.274045 14.686783 -9.317855 1.465074 18.390556 40.212896 -1.727314 17.714178 0.000002 0.000004 -0.000001 -0.000001 0.000001 0.000000 0.000002 0.000002 -0.000001 0.038000 -0.085200 0.016200 0.000001 -0.000004 -0.000003 
-0.019077 0.225079 -0.005742 -61.291345 15.735834 98.155726 -0.000000 -0.000000 -0.000001 0.000002 -0.000000 0.000000 0.000000 0.000002 0.000000 -0.000002 0.000002 0.000001 0.000924 0.155148 0.009274 -14.951948 0.055079 -5.570829 0.019937 0.078966 0.057518 -36.864676 0.845799 29.742605 0.177024 -0.020465 -0.095062 -18.868066 17.010146 -66.836044 -10.537583 -10.183103 -15.479864 -0.000000 0.000000 0.000001 0.021770 -0.038291 0.012954 0.000002 -0.000001 -0.000002 -0.000003 0.000002 0.000002 -0.000000 0.000001 0.000007 0.000003 0.000005 0.000000 -0.009090 -0.002348 -0.024224 -0.000003 -0.000003 0.000004 0.000003 -0.000001 -0.000001 -0.000001 0.000001 -0.000001 0.032823 -0.025104 0.012281 0.000001 -0.000003 0.000005 -0.000002 0.000002 -0.000005 -0.000004 -0.000003 0.000001 0.000005 -0.000002 0.000004 0.039230 -0.011402 0.008390 0.000004 -0.000003 0.000004 0.000005 -0.000001 -0.000002 0.000001 -0.000000 0.000003 -0.000001 -0.000003 0.000006 0.043417 0.002450 0.002889 0.000001 -0.000003 -0.000003 -0.000003 -0.000003 -0.000002 -0.000001 -0.000000 -0.000001 0.000001 0.000005 0.000000 -0.016662 0.078956 0.057696 -23.024598 4.332298 -22.906168 -0.176972 -0.020537 -0.095144 -12.558836 -10.322281 57.653784 -4.106355 5.588778 16.188578 -0.000001 0.000002 -0.000000 -0.021773 -0.038278 0.012988 -0.000002 -0.000000 0.000000 0.000004 0.000007 -0.000003 -0.000002 -0.000004 -0.000003 -0.000003 0.000000 0.000001 0.009114 -0.002381 -0.024212 0.000005 0.000001 0.000003 0.000000 -0.000002 -0.000001 -0.000001 0.000001 -0.000003 -0.032828 -0.025095 0.012286 -0.000001 -0.000001 0.000001 0.000000 0.000000 -0.000001 -0.000000 0.000001 0.000001 -0.000003 0.000006 -0.000007 -0.039192 -0.011488 0.008390 -0.000002 0.000000 -0.000000 0.000002 0.000000 -0.000002 -0.000000 -0.000001 -0.000004 0.000001 -0.000002 -0.000003 -0.043421 0.002443 0.002845 -0.000001 0.000000 0.000002 -0.000002 0.000004 -0.000002 -0.000003 -0.000004 -0.000002 -0.000001 0.000006 -0.000005 -0.000000 0.000000 0.000000 -1.971009 -1.236264 13.001411 -14.358098 0.607759 9.153853 40.819990 -3.076429 32.839024 0.000000 -0.000005 -0.000001 -0.000001 0.000006 0.000001 0.000002 -0.000004 0.000000 -0.038000 -0.085200 0.016200 0.000002 0.000000 0.000001 0.000000 0.000000 0.000000 -1.969445 -1.235889 14.235621 -15.270954 1.298032 15.640257 60.954835 -2.192981 22.729054 0.000000 -0.000001 -0.000003 -0.000001 -0.000001 0.000001 0.000003 0.000000 -0.000001 0.038000 -0.085200 0.016200 0.000000 0.000001 -0.000001 
-0.010364 0.231472 -0.004983 -57.463078 15.081886 93.725454 0.000001 -0.000002 -0.000000 0.000002 -0.000003 0.000001 -0.000001 0.000001 -0.000001 0.000002 0.000003 0.000001 0.000924 0.155147 0.009274 -21.004925 0.076623 -1.232610 0.019937 0.078966 0.057518 -21.824061 6.238365 44.038864 0.177025 -0.020465 -0.095062 -23.250295 12.510752 -54.366639 -74.349874 17.836440 -64.698113 -0.000003 0.000001 -0.000003 0.021770 -0.038291 0.012954 0.000001 0.000003 0.000001 0.000000 -0.000001 -0.000000 -0.000002 0.000001 0.000007 -0.000000 0.000002 0.000002 -0.009090 -0.002348 -0.024223 0.000001 -0.000002 -0.000001 0.000000 0.000002 0.000005 -0.000005 0.000001 0.000001 0.032823 -0.025104 0.012281 0.000003 -0.000000 0.000005 0.000001 -0.000003 -0.000007 -0.000003 -0.000002 0.000003 -0.000004 0.000001 0.000003 0.039230 -0.011402 0.008390 0.000003 -0.000000 0.000004 0.000002 -0.000001 0.000001 -0.000000 0.000001 -0.000001 -0.000001 -0.000003 0.000004 0.043417 0.002450 0.002889 -0.000001 0.000001 0.000002 -0.000003 -0.000001 -0.000000 -0.000002 0.000000 0.000001 0.000002 0.000000 -0.000001 -0.016662 0.078957 0.057696 -12.231990 5.884260 -33.257120 -0.176972 -0.020537 -0.095144 -30.619929 -11.610558 57.514475 -69.191346 -28.012914 73.346642 0.000003 0.000000 0.000004 -0.021773 -0.038278 0.012988 -0.000003 -0.000002 0.000000 0.000001 0.000003 0.000004 -0.000002 0.000001 -0.000001 -0.000001 -0.000001 0.000004 0.009113 -0.002381 -0.024211 0.000002 0.000000 0.000003 -0.000002 -0.000003 0.000002 0.000002 0.000004 -0.000004 -0.032828 -0.025095 0.012286 -0.000003 -0.000003 0.000001 -0.000000 0.000005 -0.000003 -0.000000 -0.000005 0.000001 -0.000004 -0.000002 -0.000007 -0.039192 -0.011488 0.008390 -0.000001 0.000001 0.000005 -0.000002 0.000001 -0.000003 -0.000001 0.000001 -0.000003 -0.000005 0.000002 -0.000004 -0.043421 0.002443 0.002844 -0.000004 -0.000004 0.000004 -0.000001 0.000002 -0.000001 -0.000000 -0.000004 -0.000000 -0.000002 -0.000001 -0.000001 0.000000 0.000000 0.000000 -1.676481 -0.922288 10.166903 6.597176 0.453259 5.827421 13.253058 -2.690274 28.301498 0.000002 -0.000001 -0.000002 -0.000003 0.000001 -0.000001 0.000003 -0.000000 -0.000000 -0.038000 -0.085200 0.016200 0.000003 0.000003 -0.000001 0.000000 0.000000 0.000000 -1.668552 -0.920778 11.401214 6.918836 1.064697 14.191174 23.342363 -1.528086 15.613939 -0.000002 -0.000001 0.000002 -0.000003 0.000002 -0.000002 0.000007 -0.000002 0.000004 0.038000 -0.085200 0.016200 -0.000003 -0.000002 -0.000001 
-0.007788 0.232807 -0.004835 -51.354700 14.665596 90.564668 0.000001 0.000002 -0.000000 0.000002 0.000002 -0.000001 0.000000 -0.000001 0.000001 -0.000001 -0.000002 0.000000 0.000924 0.155147 0.009274 -16.648291 0.057984 0.738825 0.019937 0.078966 0.057518 -10.901165 7.318777 48.311205 0.177024 -0.020465 -0.095062 -33.392761 3.811738 -39.858669 -140.664140 121.121384 -25.798871 -0.000002 0.000001 -0.000002 0.021770 -0.038291 0.012954 -0.000000 -0.000000 0.000001 -0.000001 -0.000000 -0.000000 -0.000000 0.000001 0.000005 -0.000003 -0.000002 0.000001 -0.009090 -0.002348 -0.024224 -0.000000 0.000001 -0.000001 0.000000 0.000000 0.000001 -0.000002 -0.000000 0.000003 0.032823 -0.025104 0.012281 -0.000001 -0.000000 0.000002 -0.000003 -0.000002 -0.000002 0.000000 -0.000003 0.000003 0.000004 -0.000003 0.000001 0.039230 -0.011402 0.008390 -0.000001 0.000003 0.000004 0.000000 -0.000000 -0.000000 0.000001 0.000001 0.000001 0.000002 -0.000004 0.000004 0.043417 0.002450 0.002889 -0.000002 0.000002 -0.000000 -0.000000 -0.000006 -0.000000 -0.000002 0.000003 -0.000000 0.000004 0.000002 -0.000003 -0.016662 0.078957 0.057696 -10.440060 7.374955 -39.726129 -0.176972 -0.020537 -0.095144 -36.772519 -2.227004 41.073308 19.711823 -61.448623 185.964563 -0.000002 -0.000000 0.000002 -0.021773 -0.038278 0.012988 0.000001 0.000001 -0.000003 -0.000001 0.000002 0.000001 -0.000001 0.000001 -0.000004 0.000001 0.000002 0.000005 0.009114 -0.002381 -0.024212 0.000001 -0.000003 -0.000003 -0.000001 -0.000001 -0.000001 -0.000001 -0.000001 -0.000001 -0.032828 -0.025095 0.012286 0.000003 0.000002 -0.000001 0.000001 0.000003 -0.000001 0.000004 -0.000001 0.000001 -0.000000 0.000001 -0.000006 -0.039192 -0.011488 0.008390 0.000001 0.000004 0.000001 -0.000002 0.000001 -0.000002 0.000003 -0.000003 0.000003 -0.000002 0.000004 -0.000001 -0.043421 0.002443 0.002845 0.000001 0.000002 0.000000 -0.000004 0.000002 -0.000001 -0.000000 -0.000004 -0.000002 -0.000001 0.000003 -0.000003 0.000000 0.000000 -0.000000 -1.608764 -0.699060 7.624348 15.856267 0.527582 6.280700 5.257596 -1.976455 20.377676 -0.000002 0.000003 0.000005 0.000001 -0.000002 0.000003 0.000002 0.000001 0.000004 -0.038000 -0.085200 0.016200 -0.000000 0.000006 0.000002 0.000000 0.000000 -0.000000 -1.595190 -0.697104 8.858693 19.256074 0.956141 13.608804 4.973628 -1.044398 10.599075 -0.000003 -0.000002 0.000001 0.000002 -0.000002 -0.000001 0.000005 -0.000001 -0.000001 0.038000 -0.085200 0.016200 -0.000003 -0.000001 0.000001 
